<svg width="147" height="132" viewBox="0 0 147 132" fill="none" xmlns="http://www.w3.org/2000/svg">
<path d="M74.7092 131.464L74.7092 72.9376L98.732 127.336L101.502 126.314L77.2977 71.4663L123.663 113.195L125.752 111.315L79.7954 69.9541L139.466 93.1276L140.647 90.6754L80.4311 67.2975L146.051 67.2975L146.051 64.6001L81.0214 64.6001L141.464 43.0205L140.329 40.5274L79.3866 62.3114L125.752 20.5418L123.663 18.6618L77.7064 60.0226L103.455 6.31888L100.73 5.25627L74.7092 59.4504L74.7092 0.433591L71.7575 0.43359L71.7575 58.9191L47.7802 4.56148L45.0101 5.54239L69.169 60.3904L22.8039 18.6617L20.7149 20.5418L66.6714 61.9435L7.0007 38.7291L5.81995 41.2222L66.0357 64.6001L0.461426 64.6001L0.461426 67.2975L65.4453 67.2975L5.04796 88.8771L6.13787 91.3702L67.0801 69.5863L20.7149 111.315L22.8039 113.195L68.7603 71.8341L43.012 125.538L45.7821 126.6L71.7575 72.4472L71.7575 131.464L74.7092 131.464Z" fill="#EDA78E" fill-opacity="0.17"/>
</svg>
