<svg width="365" height="327" viewBox="0 0 365 327" fill="none" xmlns="http://www.w3.org/2000/svg">
<path d="M199.471 211.22L245.972 316.665L252.875 314.213L206.374 208.768C204.148 209.708 201.878 210.566 199.471 211.261L199.471 211.22Z" fill="#EDA78E" fill-opacity="0.17"/>
<path d="M224.31 130.501L313.453 50.2722L308.185 45.5312L219.042 125.76C220.904 127.231 222.675 128.825 224.31 130.501Z" fill="#EDA78E" fill-opacity="0.17"/>
<path d="M182.397 113.336C183.669 113.336 184.895 113.417 186.121 113.499L186.121 0.00195312L178.674 0.0019528L178.674 113.499C179.9 113.417 181.126 113.336 182.397 113.336Z" fill="#EDA78E" fill-opacity="0.17"/>
<path d="M207.828 118.894L257.781 14.7152L250.969 12.0586L201.017 116.237C203.378 116.973 205.649 117.872 207.828 118.894Z" fill="#EDA78E" fill-opacity="0.17"/>
<path d="M235.438 148.116L352.555 106.265L349.83 100.053L232.668 141.904C233.713 143.907 234.666 145.95 235.438 148.116Z" fill="#EDA78E" fill-opacity="0.17"/>
<path d="M219.042 201.206L308.185 281.434L313.453 276.693L224.31 196.465C222.675 198.141 220.904 199.734 219.042 201.206Z" fill="#EDA78E" fill-opacity="0.17"/>
<path d="M238.117 163.484C238.117 164.629 238.026 165.732 237.935 166.836L364.043 166.836L364.043 160.133L237.935 160.133C238.026 161.236 238.117 162.34 238.117 163.484Z" fill="#EDA78E" fill-opacity="0.17"/>
<path d="M231.943 186.371L347.697 231.328L350.648 225.198L234.894 180.24C234.077 182.365 233.078 184.409 231.943 186.371Z" fill="#EDA78E" fill-opacity="0.17"/>
<path d="M145.75 125.76L56.6071 45.5312L51.3394 50.2722L140.482 130.501C142.117 128.825 143.888 127.231 145.75 125.76Z" fill="#EDA78E" fill-opacity="0.17"/>
<path d="M140.482 196.465L51.3393 276.693L56.6071 281.434L145.75 201.206C143.888 199.734 142.117 198.141 140.482 196.465Z" fill="#EDA78E" fill-opacity="0.17"/>
<path d="M156.966 208.074L107.013 312.253L113.825 314.909L163.777 210.731C161.416 209.995 159.145 209.096 156.966 208.074Z" fill="#EDA78E" fill-opacity="0.17"/>
<path d="M165.32 115.747L118.819 10.3418L111.916 12.794L158.418 118.24C160.643 117.3 162.913 116.441 165.32 115.747Z" fill="#EDA78E" fill-opacity="0.17"/>
<path d="M186.121 213.469C184.895 213.55 183.669 213.632 182.397 213.632C181.126 213.632 179.9 213.55 178.674 213.469L178.674 326.966L186.121 326.966L186.121 213.469Z" fill="#EDA78E" fill-opacity="0.17"/>
<path d="M132.852 140.596L17.0974 95.6387L14.1457 101.769L129.9 146.727C130.717 144.601 131.716 142.558 132.852 140.596Z" fill="#EDA78E" fill-opacity="0.17"/>
<path d="M129.357 178.852L12.1956 220.703L14.9203 226.915L132.082 185.064C131.038 183.061 130.084 181.018 129.312 178.852L129.357 178.852Z" fill="#EDA78E" fill-opacity="0.17"/>
<path d="M126.678 163.484C126.678 162.34 126.769 161.236 126.859 160.133L0.751554 160.133L0.751554 166.836L126.859 166.836C126.769 165.732 126.678 164.629 126.678 163.484Z" fill="#EDA78E" fill-opacity="0.17"/>
</svg>
